<svg width="50" height="50" viewBox="0 0 50 50" fill="none" xmlns="http://www.w3.org/2000/svg">
<rect width="50" height="50" rx="8" fill="#FAFAFA"/>
<path d="M40 17.255V32.745C40.0001 32.9235 39.9524 33.0988 39.8618 33.2527C39.7712 33.4066 39.6411 33.5334 39.485 33.62L25.485 41.3967C25.3366 41.479 25.1697 41.5221 25 41.5221C24.8303 41.5221 24.6634 41.479 24.515 41.3967L10.515 33.62C10.3589 33.5334 10.2288 33.4066 10.1382 33.2527C10.0476 33.0988 9.99991 32.9235 10 32.745V17.255C10.0002 17.0767 10.0481 16.9018 10.1386 16.7482C10.2292 16.5947 10.3591 16.4681 10.515 16.3817L24.515 8.60333C24.6634 8.52103 24.8303 8.47784 25 8.47784C25.1697 8.47784 25.3366 8.52103 25.485 8.60333L39.485 16.3817C39.6409 16.4681 39.7708 16.5947 39.8614 16.7482C39.9519 16.9018 39.9998 17.0767 40 17.255Z" stroke="black" stroke-width="0.75" stroke-linecap="round" stroke-linejoin="round"/>
<path d="M10.8799 17.1567L24.5132 24.73C24.6618 24.8126 24.829 24.856 24.999 24.856C25.1691 24.856 25.3363 24.8126 25.4849 24.73L39.1665 17.13M24.9999 40V25" stroke="black" stroke-width="0.75" stroke-linecap="round" stroke-linejoin="round"/>
</svg>
